<?xml version="1.0" encoding="UTF-8"?>
<svg xmlns="http://www.w3.org/2000/svg" xmlns:xlink="http://www.w3.org/1999/xlink" width="900pt" height="899.99999pt" viewBox="0 0 900 899.99999" version="1.2">
<g id="surface1">
<path style=" stroke:none;fill-rule:nonzero;fill:rgb(79.219055%,81.959534%,83.918762%);fill-opacity:1;" d="M 450.132812 530.628906 L 450.132812 463.964844 L 67.765625 463.964844 L 67.765625 668.769531 L 450.132812 668.769531 Z M 67.765625 668.769531 L 450.132812 900.746094 L 450.132812 668.769531 Z M 67.765625 231.988281 L 450.132812 231.988281 L 450.132812 463.964844 L 67.765625 463.964844 Z M 67.765625 231.988281 "/>
<path style=" stroke:none;fill-rule:nonzero;fill:rgb(74.899292%,78.819275%,81.959534%);fill-opacity:1;" d="M 450.132812 463.964844 L 450.132812 668.769531 L 832.5 668.769531 L 832.5 463.964844 Z M 450.132812 231.988281 L 832.5 231.988281 L 832.5 463.964844 L 450.132812 463.964844 Z M 450.132812 900.746094 L 832.5 668.769531 L 450.132812 668.769531 Z M 450.132812 900.746094 "/>
<path style=" stroke:none;fill-rule:nonzero;fill:rgb(87.059021%,90.979004%,94.509888%);fill-opacity:1;" d="M 450.132812 463.964844 L 67.765625 231.988281 L 450.132812 0.0117188 L 832.5 231.988281 Z M 450.132812 463.964844 "/>
<path style=" stroke:none;fill-rule:nonzero;fill:rgb(45.489502%,55.288696%,38.42926%);fill-opacity:1;" d="M 661.414062 532.78125 L 669.097656 523.199219 L 616.136719 480.742188 L 592.222656 510.574219 L 645.179688 553.03125 Z M 592.222656 510.574219 L 619.414062 585.171875 L 645.179688 553.03125 Z M 641.902344 448.601562 L 694.863281 491.058594 L 669.097656 523.199219 L 616.136719 480.742188 Z M 641.902344 448.601562 "/>
<path style=" stroke:none;fill-rule:nonzero;fill:rgb(58.81958%,68.629456%,50.19989%);fill-opacity:1;" d="M 669.097656 523.199219 L 645.179688 553.03125 L 698.140625 595.488281 L 722.054688 565.65625 Z M 694.863281 491.058594 L 747.824219 533.515625 L 722.054688 565.65625 L 669.097656 523.199219 Z M 619.414062 585.171875 L 698.140625 595.488281 L 645.179688 553.03125 Z M 619.414062 585.171875 "/>
<path style=" stroke:none;fill-rule:nonzero;fill:rgb(69.018555%,81.17981%,55.288696%);fill-opacity:1;" d="M 669.097656 523.199219 L 641.902344 448.601562 L 720.628906 458.914062 L 747.824219 533.515625 Z M 669.097656 523.199219 "/>
<path style=" stroke:none;fill-rule:nonzero;fill:rgb(55.288696%,38.42926%,38.42926%);fill-opacity:1;" d="M 253.339844 248.96875 L 246.511719 238.757812 L 190.082031 276.480469 L 211.332031 308.265625 L 267.761719 270.542969 Z M 211.332031 308.265625 L 290.65625 304.789062 L 267.761719 270.542969 Z M 167.1875 242.234375 L 223.617188 204.511719 L 246.511719 238.757812 L 190.082031 276.480469 Z M 167.1875 242.234375 "/>
<path style=" stroke:none;fill-rule:nonzero;fill:rgb(68.629456%,50.19989%,50.19989%);fill-opacity:1;" d="M 246.511719 238.757812 L 267.761719 270.542969 L 324.191406 232.820312 L 302.941406 201.035156 Z M 223.617188 204.511719 L 280.046875 166.789062 L 302.941406 201.035156 L 246.511719 238.757812 Z M 290.65625 304.789062 L 324.191406 232.820312 L 267.761719 270.542969 Z M 290.65625 304.789062 "/>
<path style=" stroke:none;fill-rule:nonzero;fill:rgb(81.17981%,55.288696%,55.288696%);fill-opacity:1;" d="M 246.511719 238.757812 L 167.1875 242.234375 L 200.722656 170.261719 L 280.046875 166.789062 Z M 246.511719 238.757812 "/>
<path style=" stroke:none;fill-rule:nonzero;fill:rgb(55.288696%,54.119873%,38.42926%);fill-opacity:1;" d="M 427.886719 751.820312 L 417.28125 745.628906 L 383.0625 804.25 L 416.085938 823.523438 L 450.300781 764.902344 Z M 416.085938 823.523438 L 485.878906 785.667969 L 450.300781 764.902344 Z M 347.484375 783.484375 L 381.703125 724.863281 L 417.28125 745.628906 L 383.0625 804.25 Z M 347.484375 783.484375 "/>
<path style=" stroke:none;fill-rule:nonzero;fill:rgb(68.629456%,67.83905%,50.19989%);fill-opacity:1;" d="M 417.28125 745.628906 L 450.300781 764.902344 L 484.515625 706.28125 L 451.496094 687.007812 Z M 381.703125 724.863281 L 415.917969 666.242188 L 451.496094 687.007812 L 417.28125 745.628906 Z M 485.878906 785.667969 L 484.515625 706.28125 L 450.300781 764.902344 Z M 485.878906 785.667969 "/>
<path style=" stroke:none;fill-rule:nonzero;fill:rgb(81.17981%,76.078796%,55.288696%);fill-opacity:1;" d="M 417.28125 745.628906 L 347.484375 783.484375 L 346.125 704.097656 L 415.917969 666.242188 Z M 417.28125 745.628906 "/>
</g>
</svg>
